<svg width="562" height="33" viewBox="0 0 562 33" fill="none" xmlns="http://www.w3.org/2000/svg">
<g clip-path="url(#clip0_1060_2597)">
<path d="M545.044 32.387H0L16.928 12.587H545.044V32.387Z" fill="#0C111F"/>
<path d="M537.913 0H549.593C552.778 0 555.832 1.26502 558.083 3.51677C560.335 5.76852 561.6 8.82255 561.6 12.007V12.038C561.6 13.6148 561.29 15.1761 560.686 16.6329C560.083 18.0896 559.198 19.4133 558.083 20.5282C556.968 21.6432 555.645 22.5276 554.188 23.131C552.731 23.7344 551.17 24.045 549.593 24.045H537.913V0Z" fill="#5CC5F3"/>
<path d="M545.044 32.387L537.912 24.042H545.043L545.044 32.387Z" fill="#E82C3F"/>
<path d="M77.4987 23.873L75.4467 19.967H76.3557L77.9037 23.144L79.4517 19.967H80.3607L78.3177 23.873V26.24H77.4987V23.873Z" fill="white"/>
<path d="M74.0132 24.476C74.0132 23.783 73.4912 23.351 72.6902 23.351H71.2682V25.565H72.7172C73.5272 25.565 74.0132 25.16 74.0132 24.476ZM73.8512 21.659C73.8512 21.038 73.4282 20.642 72.6272 20.642H71.2682V22.676H72.6452C73.4102 22.676 73.8512 22.298 73.8512 21.659ZM74.8322 24.557C74.8322 25.502 74.0852 26.24 72.7892 26.24H70.4492V19.967H72.6992C74.0222 19.967 74.6882 20.687 74.6882 21.56C74.6882 22.352 74.1932 22.811 73.5902 23.009C74.2742 23.126 74.8322 23.783 74.8322 24.557Z" fill="white"/>
<path d="M63.6395 19.967C65.7005 19.967 66.9695 21.173 66.9695 23.117C66.9695 25.061 65.7005 26.24 63.6395 26.24H61.6865V19.967H63.6395ZM62.5055 25.565H63.6395C65.2775 25.565 66.1325 24.647 66.1325 23.117C66.1325 21.587 65.2775 20.633 63.6395 20.633H62.5055V25.565Z" fill="white"/>
<path d="M60.4472 19.958V20.633H57.8912V22.73H60.1772V23.405H57.8912V25.565H60.4472V26.24H57.0722V19.958H60.4472Z" fill="white"/>
<path d="M54.9536 21.812C54.9536 21.101 54.5576 20.642 53.6216 20.642H52.4156V23.018H53.6216C54.5486 23.018 54.9536 22.514 54.9536 21.812ZM51.5966 19.967H53.6216C55.0976 19.967 55.7996 20.786 55.7996 21.812C55.7996 22.613 55.3586 23.378 54.3056 23.612L55.8806 26.24H54.8996L53.4056 23.675H52.4156V26.24H51.5966V19.967Z" fill="white"/>
<path d="M50.3574 19.958V20.633H47.8014V22.73H50.0874V23.405H47.8014V25.565H50.3574V26.24H46.9824V19.958H50.3574Z" fill="white"/>
<path d="M39.4711 26.249L37.7161 19.967H38.5891L39.9571 25.286L41.4691 19.967H42.3871L43.8271 25.268L45.2041 19.967H46.0861L44.2681 26.24H43.3501L41.8921 21.191L40.3801 26.24L39.4711 26.249Z" fill="white"/>
<path d="M37.1209 23.099C37.1209 24.98 35.7439 26.303 33.9709 26.303C32.2069 26.303 30.8209 24.98 30.8209 23.099C30.8209 21.218 32.2069 19.895 33.9709 19.895C35.7439 19.895 37.1209 21.218 37.1209 23.099ZM31.6579 23.099C31.6579 24.629 32.6479 25.592 33.9709 25.592C35.2939 25.592 36.2839 24.629 36.2839 23.099C36.2839 21.56 35.2939 20.606 33.9709 20.606C32.6479 20.606 31.6579 21.56 31.6579 23.099Z" fill="white"/>
<path d="M26.734 22.946H27.94C28.876 22.946 29.272 22.505 29.272 21.803C29.272 21.074 28.876 20.642 27.94 20.642H26.734V22.946ZM30.109 21.803C30.109 22.757 29.497 23.621 27.94 23.621H26.734V26.24H25.915V19.967H27.94C29.416 19.967 30.109 20.777 30.109 21.803Z" fill="white"/>
<path d="M137.995 25.736C137.995 26.051 137.752 26.294 137.455 26.294C137.14 26.294 136.897 26.051 136.897 25.736C136.897 25.421 137.14 25.178 137.455 25.178C137.752 25.178 137.995 25.421 137.995 25.736Z" fill="white"/>
<path d="M136.06 19.922V21.155H133.729V22.433H135.79V23.621H133.729V25.007H136.06V26.24H132.19V19.922H136.06Z" fill="white"/>
<path d="M127.901 19.922H129.44V25.052H131.456V26.24H127.901V19.922Z" fill="white"/>
<path d="M122.242 21.155V19.922H127.129V21.155H125.455V26.24H123.916V21.155H122.242Z" fill="white"/>
<path d="M119.929 26.24V19.922H121.468V26.24H119.929Z" fill="white"/>
<path d="M114.27 21.155V19.922H119.157V21.155H117.483V26.24H115.944V21.155H114.27Z" fill="white"/>
<path d="M110.05 19.922H111.589V26.24H110.05L107.476 22.343V26.24H105.937V19.922H107.476L110.05 23.837V19.922Z" fill="white"/>
<path d="M103.283 26.24V19.922H104.822V26.24H103.283Z" fill="white"/>
<path d="M99.2057 22.748H100.043C100.655 22.748 100.916 22.442 100.916 21.956C100.916 21.47 100.655 21.164 100.043 21.164H99.2057V22.748ZM102.482 21.956C102.482 23 101.771 23.972 100.16 23.972H99.2057V26.24H97.6667V19.922H100.16C101.708 19.922 102.482 20.795 102.482 21.956Z" fill="white"/>
<path d="M93.5895 22.748H94.4265C95.0385 22.748 95.2995 22.442 95.2995 21.956C95.2995 21.47 95.0385 21.164 94.4265 21.164H93.5895V22.748ZM96.8655 21.956C96.8655 23 96.1545 23.972 94.5435 23.972H93.5895V26.24H92.0505V19.922H94.5435C96.0915 19.922 96.8655 20.795 96.8655 21.956Z" fill="white"/>
<path d="M89.3962 26.24V19.922H90.9352V26.24H89.3962Z" fill="white"/>
<path d="M85.319 22.748H86.156C86.768 22.748 87.029 22.442 87.029 21.956C87.029 21.47 86.768 21.164 86.156 21.164H85.319V22.748ZM88.595 21.956C88.595 23 87.884 23.972 86.273 23.972H85.319V26.24H83.78V19.922H86.273C87.821 19.922 88.595 20.795 88.595 21.956Z" fill="white"/>
</g>
<defs>
<clipPath id="clip0_1060_2597">
<rect width="561.6" height="32.387" fill="white"/>
</clipPath>
</defs>
</svg>
